<?xml version="1.0"?>
<svg xmlns="http://www.w3.org/2000/svg" height="512px" viewBox="0 0 60 60" width="512px" class=""><g><g id="Page-1" fill="none" fill-rule="evenodd"><g id="025---Cloud-Connections" fill="rgb(0,0,0)" fill-rule="nonzero"><path id="Shape" d="m40.07 8.8c.1900027.22213775.4676882.35001923.76.35.2396226-.00275895.470287-.09147603.65-.25.2015762-.17238328.3264119-.4177863.3470412-.68221664.0206293-.26443035-.0646378-.52622436-.2370412-.72778336-1.8996293-2.21500206-4.6719826-3.48977318-7.59-3.49-.5522847 0-1 .44771525-1 1s.4477153 1 1 1c2.3350005.00276653 4.5522502 1.02555059 6.07 2.8z" data-original="#000000" class="active-path" data-old_color="#000000" fill="#FFFFFF"/><path id="Shape" d="m48 38c6.627417 0 12-5.372583 12-12s-5.372583-12-12-12c-.0137806-6.75848529-4.8538456-12.54228148-11.5040745-13.74717535s-13.2118426 2.51313692-15.5959255 8.83717535c-3.1853678.34613608-6.0079851 2.2080208-7.58 5-.4379481-.0548953-.8786538-.0849434-1.32-.09-6.627417 0-12 5.372583-12 12s5.372583 12 12 12h6v7c0 .5522847-.4477153 1-1 1h-3v-3c0-1.6568542-1.3431458-3-3-3h-8c-1.65685425 0-3 1.3431458-3 3v8c0 1.6568542 1.34314575 3 3 3h8c1.6568542 0 3-1.3431458 3-3v-3h3c1.6568542 0 3-1.3431458 3-3v-7h9v8h-3c-1.6568542 0-3 1.3431458-3 3v8c0 1.6568542 1.3431458 3 3 3h8c1.6568542 0 3-1.3431458 3-3v-8c0-1.6568542-1.3431458-3-3-3h-3v-8h9v7c0 1.6568542 1.3431458 3 3 3h3v3c0 1.6568542 1.3431458 3 3 3h8c1.6568542 0 3-1.3431458 3-3v-8c0-1.6568542-1.3431458-3-3-3h-8c-1.6568542 0-3 1.3431458-3 3v3h-3c-.5522847 0-1-.4477153-1-1v-7zm-36 13c0 .5522847-.4477153 1-1 1h-8c-.55228475 0-1-.4477153-1-1v-8c0-.5522847.44771525-1 1-1h8c.5522847 0 1 .4477153 1 1zm23-2v8c0 .5522847-.4477153 1-1 1h-8c-.5522847 0-1-.4477153-1-1v-8c0-.5522847.4477153-1 1-1h8c.5522847 0 1 .4477153 1 1zm13-6c0-.5522847.4477153-1 1-1h8c.5522847 0 1 .4477153 1 1v8c0 .5522847-.4477153 1-1 1h-8c-.5522847 0-1-.4477153-1-1zm-17-7v-5.14c1.9503067-.503567 3.2219252-2.3787867 2.9681188-4.3770005s-1.9538507-3.4959828-3.9681188-3.4959828-3.7143124 1.497769-3.9681188 3.4959828 1.0178121 3.8734335 2.9681188 4.3770005v5.14h-9v-5.14c1.9503067-.503567 3.2219252-2.3787867 2.9681188-4.3770005s-1.9538507-3.4959828-3.9681188-3.4959828-3.7143124 1.497769-3.9681188 3.4959828 1.0178121 3.8734335 2.9681188 4.3770005v5.14h-6c-5.5228475 0-10-4.4771525-10-10s4.4771525-10 10-10c1.9730774-.0063323 3.9027673.5788444 5.54 1.68.3001031.2000687.6841452.2248368 1.0074614.0649742.3233161-.1598625.5367869-.4800687.56-.84.023213-.3599312-.1473583-.7049055-.4474614-.9049742-1.0022971-.6732402-2.1016771-1.1892069-3.26-1.53 1.4344209-2.0914501 3.7755523-3.3788869 6.31-3.47h.22c1.7585477-.0393375 3.4774315.5253882 4.87 1.6.4418278.3313708 1.0686291.2418278 1.4-.2.3313708-.4418278.2418278-1.0686291-.2-1.4-1.4368206-1.08209346-3.1410594-1.75272698-4.93-1.94 2.3315558-5.14486251 7.9354541-7.96718928 13.457282-6.77757612s9.466469 6.06906094 9.472718 11.71757612v.17c-1.6662638.2699658-3.2552963.893985-4.66 1.83-.4583963.3092795-.5792795.9316037-.27 1.39s.9316037.5792795 1.39.27c1.6394914-1.0940872 3.5690082-1.6722457 5.54-1.66 5.5228475 0 10 4.4771525 10 10s-4.4771525 10-10 10h-6v-5.14c1.9503067-.503567 3.2219252-2.3787867 2.9681188-4.3770005s-1.9538507-3.4959828-3.9681188-3.4959828-3.7143124 1.497769-3.9681188 3.4959828 1.0178121 3.8734335 2.9681188 4.3770005v5.14zm-1-9c-.5522847 0-1 .4477153-1 1v.72c-.783936-.4526057-1.1661376-1.3753219-.9318517-2.2496889.234286-.874367 1.0266403-1.4823619 1.9318517-1.4823619s1.6975657.6079949 1.9318517 1.4823619c.2342859.874367-.1479157 1.7970832-.9318517 2.2496889v-.72c0-.5522847-.4477153-1-1-1zm-11 0c-.5522847 0-1 .4477153-1 1v.72c-.783936-.4526057-1.1661376-1.3753219-.9318517-2.2496889.234286-.874367 1.0266403-1.4823619 1.9318517-1.4823619s1.6975657.6079949 1.9318517 1.4823619c.2342859.874367-.1479157 1.7970832-.9318517 2.2496889v-.72c0-.5522847-.4477153-1-1-1zm22 0c-.5522847 0-1 .4477153-1 1v.72c-.783936-.4526057-1.1661376-1.3753219-.9318517-2.2496889.234286-.874367 1.0266403-1.4823619 1.9318517-1.4823619s1.6975657.6079949 1.9318517 1.4823619c.2342859.874367-.1479157 1.7970832-.9318517 2.2496889v-.72c0-.5522847-.4477153-1-1-1z" data-original="#000000" class="active-path" data-old_color="#000000" fill="#FFFFFF"/></g></g></g> </svg>
